<?xml version="1.0" standalone="no"?>
<!DOCTYPE svg PUBLIC "-//W3C//DTD SVG 20010904//EN"
 "http://www.w3.org/TR/2001/REC-SVG-20010904/DTD/svg10.dtd">
<svg version="1.0" xmlns="http://www.w3.org/2000/svg"
 width="200.000000pt" height="200.000000pt" viewBox="0 0 200.000000 200.000000"
 preserveAspectRatio="xMidYMid meet">
<metadata>
Created by potrace 1.11, written by Peter Selinger 2001-2013
</metadata>
<g transform="translate(0.000000,200.000000) scale(0.100000,-0.100000)"
fill="#000000" stroke="none">
<path d="M0 1000 l0 -1000 1000 0 1000 0 0 1000 0 1000 -1000 0 -1000 0 0
-1000z m1084 904 c10 -26 7 -94 -9 -193 -9 -51 -13 -107 -10 -125 4 -19 -6
-84 -25 -166 -17 -74 -40 -183 -50 -241 -10 -58 -30 -144 -44 -190 -14 -46
-46 -172 -72 -279 -53 -221 -75 -277 -111 -286 -13 -4 -26 -5 -28 -2 -7 7 -7
111 0 188 6 79 31 234 65 410 28 144 27 146 -14 148 -19 1 -39 -5 -46 -13 -9
-11 -28 -13 -84 -8 -65 5 -77 3 -121 -21 -28 -14 -57 -26 -65 -26 -24 0 -118
-58 -130 -79 -11 -21 -14 -238 -4 -265 9 -23 24 -20 56 11 31 30 43 26 34 -10
-10 -42 -101 -172 -130 -185 -44 -20 -71 -15 -85 16 -7 15 -17 95 -22 177 -10
178 -15 207 -40 257 -25 50 -24 76 6 120 33 49 53 141 65 299 6 73 13 136 16
140 3 5 9 61 15 126 10 129 21 152 86 179 94 40 136 -14 98 -127 -8 -24 -26
-120 -40 -214 -14 -93 -30 -200 -37 -237 -7 -37 -9 -70 -6 -73 3 -4 30 -1 59
5 82 17 257 28 298 19 36 -8 115 5 138 23 15 12 27 70 53 261 19 135 19 149 4
171 -15 24 -14 27 23 82 37 57 112 124 138 124 7 0 16 -7 19 -16z m391 -394
c216 -58 382 -163 421 -266 21 -54 14 -131 -15 -178 -43 -68 -176 -157 -418
-277 -84 -42 -143 -77 -143 -86 0 -22 86 -109 180 -181 47 -36 110 -87 141
-114 31 -26 78 -62 105 -80 141 -95 183 -130 193 -160 14 -39 14 -95 1 -103
-14 -9 -294 129 -355 174 -27 21 -88 63 -135 94 -47 31 -113 77 -147 102 -34
26 -67 44 -72 41 -5 -3 -21 -70 -35 -148 -15 -79 -29 -153 -32 -165 -6 -30
-54 -31 -80 -2 -24 27 -24 98 1 247 10 60 15 120 11 135 -3 15 -22 42 -41 61
-19 20 -35 37 -35 39 0 25 29 67 60 89 l40 28 2 127 c0 71 1 135 0 143 -1 8
-4 90 -8 182 l-7 166 27 46 c18 31 44 56 79 76 48 28 58 30 132 27 44 -1 103
-9 130 -17z"/>
<path d="M1243 1320 c-29 -12 -43 -40 -43 -88 0 -50 7 -56 38 -32 35 28 68 25
89 -6 16 -25 16 -31 0 -108 -31 -142 -49 -257 -43 -263 4 -4 57 20 119 52 295
154 376 248 285 332 -31 30 -158 87 -234 107 -67 17 -175 20 -211 6z"/>
</g>
</svg>
